<svg id="Layer_1" enable-background="new 0 0 512 512" height="512" viewBox="0 0 512 512" width="512" xmlns="http://www.w3.org/2000/svg" xmlns:xlink="http://www.w3.org/1999/xlink"><linearGradient id="SVGID_1_" gradientUnits="userSpaceOnUse" x1="0" x2="512" y1="256" y2="256"><stop offset="0" stop-color="#00f2fe"/><stop offset=".0208" stop-color="#03effe"/><stop offset=".2931" stop-color="#24d2fe"/><stop offset=".5538" stop-color="#3cbdfe"/><stop offset=".7956" stop-color="#4ab0fe"/><stop offset="1" stop-color="#4facfe"/></linearGradient><path d="m492 324.136c11.046 0 20-8.954 20-20v-176.136c0-2.398-.431-4.777-1.273-7.022l-15.4-41.067c-11.644-31.05-41.746-51.911-74.907-51.911h-328.84c-33.161 0-63.263 20.861-74.906 51.91l-15.4 41.067c-.843 2.246-1.274 4.625-1.274 7.023v276c0 44.112 35.888 80 80 80h352c44.112 0 80-35.888 80-80 0-11.046-8.954-20-20-20s-20 8.954-20 20c0 22.056-17.944 40-40 40h-352c-22.056 0-40-17.944-40-40v-246h20.14l10.534 28.09c11.643 31.049 41.745 51.91 74.906 51.91h219.84c33.161 0 63.263-20.861 74.906-51.91l10.534-28.09h21.14v146.136c0 11.046 8.954 20 20 20zm-55-206.136c-8.337 0-15.799 5.171-18.727 12.978l-15.4 41.067c-5.822 15.524-20.873 25.955-37.453 25.955h-219.84c-16.58 0-31.631-10.431-37.453-25.955l-15.4-41.067c-2.928-7.807-10.39-12.978-18.727-12.978h-28.89l9.017-24.045c5.822-15.524 20.873-25.955 37.453-25.955h328.84c16.58 0 31.631 10.431 37.453 25.955l9.017 24.045z" fill="url(#SVGID_1_)"/></svg>