<svg id="Layer_1" enable-background="new 0 0 512.017 512.017" height="512" viewBox="0 0 512.017 512.017" width="512" xmlns="http://www.w3.org/2000/svg" xmlns:xlink="http://www.w3.org/1999/xlink"><linearGradient id="SVGID_1_" gradientUnits="userSpaceOnUse" x1=".008" x2="512.008" y1="256.008" y2="256.008"><stop offset="0" stop-color="#00f2fe"/><stop offset=".0208" stop-color="#03effe"/><stop offset=".2931" stop-color="#24d2fe"/><stop offset=".5538" stop-color="#3cbdfe"/><stop offset=".7956" stop-color="#4ab0fe"/><stop offset="1" stop-color="#4facfe"/></linearGradient><path d="m506.104 254.205c-3.901 3.875-9 5.812-14.095 5.812-5.141 0-10.28-1.969-14.189-5.904l-15.812-15.916v93.82c0 11.046-8.954 20-20 20s-20-8.954-20-20v-134.084l-152.107-153.111c-7.465-6.394-18.456-6.417-25.947-.054l-153.975 153.672c.005.193.029.382.029.577v233c0 22.056 17.944 40 40 40h252c22.056 0 40-17.944 40-40 0-11.046 8.954-20 20-20s20 8.954 20 20c0 44.112-35.888 80-80 80h-252c-44.112 0-80-35.888-80-80v-193.684l-15.872 15.84c-7.818 7.802-20.481 7.791-28.284-.028-7.803-7.818-7.791-20.481.027-28.285 0 0 210.835-210.404 211.119-210.657 22.841-20.335 57.227-20.262 79.982.168.283.254 209.216 210.549 209.216 210.549 7.786 7.837 7.744 20.5-.092 28.285zm-200.096-45.188c19.172 0 36.806 7.235 49.654 20.373 13.12 13.416 20.346 32.319 20.346 53.226 0 20.457-7.955 39.365-24.319 57.805-12.799 14.423-28.758 26.442-44.192 38.065-14.336 10.797-27.878 20.996-35.85 30.997-3.794 4.761-9.551 7.534-15.639 7.534s-11.845-2.773-15.639-7.534c-7.972-10-21.514-20.199-35.85-30.997-15.434-11.623-31.393-23.642-44.192-38.065-16.364-18.44-24.319-37.349-24.319-57.805 0-20.907 7.226-39.81 20.346-53.226 12.848-13.138 30.482-20.373 49.654-20.373 20.224 0 37.495 6.882 50 19.667 12.505-12.785 29.776-19.667 50-19.667zm0 40c-12.083 0-20.11 4.04-25.261 12.712-3.973 6.69-4.792 13.75-4.798 13.816-.799 10.434-9.489 18.696-19.929 18.696-.075 0-.148 0-.223-.001-10.501-.118-19.1-8.113-19.725-18.582-.113-.946-1.1-8.178-5.346-14.808-5.17-8.073-13.025-11.833-24.719-11.833-18.224 0-30 13.188-30 33.599 0 24.324 26.727 44.453 52.574 63.919 9.698 7.303 19.077 14.367 27.426 21.805 8.349-7.438 17.728-14.501 27.426-21.805 25.847-19.466 52.574-39.595 52.574-63.919.001-20.411-11.774-33.599-29.999-33.599z" fill="url(#SVGID_1_)"/></svg>